<?xml version="1.0" encoding="utf-8"?>
<!-- Generator: Adobe Illustrator 16.0.0, SVG Export Plug-In . SVG Version: 6.00 Build 0)  -->
<!DOCTYPE svg PUBLIC "-//W3C//DTD SVG 1.1//EN" "http://www.w3.org/Graphics/SVG/1.1/DTD/svg11.dtd">
<svg version="1.1" id="Capa_1" xmlns="http://www.w3.org/2000/svg" xmlns:xlink="http://www.w3.org/1999/xlink" x="0px" y="0px"
	 width="141.732px" height="141.732px" viewBox="-60.866 -60.866 141.732 141.732"
	 enable-background="new -60.866 -60.866 141.732 141.732" xml:space="preserve">
<path fill="#FFFFFF" d="M33.757,9.998L75.951-32.19c6.561-6.567,6.547-17.197,0-23.761c-6.567-6.554-17.197-6.561-23.765,0
	L9.999-13.761l-42.188-42.19c-6.567-6.561-17.197-6.554-23.761,0c-6.547,6.564-6.554,17.194,0,23.761l42.187,42.191l-42.187,42.19
	c-6.554,6.561-6.554,17.197,0,23.758c6.557,6.561,17.194,6.561,23.754,0L9.999,33.763l42.188,42.187
	c6.561,6.561,17.197,6.561,23.765,0c6.547-6.561,6.547-17.197,0-23.758L33.757,9.998z"/>
</svg>
