<?xml version="1.0" encoding="utf-8"?>
<!-- Generator: Adobe Illustrator 16.0.0, SVG Export Plug-In . SVG Version: 6.00 Build 0)  -->
<!DOCTYPE svg PUBLIC "-//W3C//DTD SVG 1.1//EN" "http://www.w3.org/Graphics/SVG/1.1/DTD/svg11.dtd">
<svg version="1.1" id="Capa_1" xmlns="http://www.w3.org/2000/svg" xmlns:xlink="http://www.w3.org/1999/xlink" x="0px" y="0px"
	 width="20px" height="20px" viewBox="0 0 20 20" enable-background="new 0 0 20 20" xml:space="preserve">
<path fill="#FFFFFF" d="M19.306,0.694c0.925,0.926,0.926,2.426,0,3.353L4.046,19.307c-0.926,0.925-2.427,0.925-3.352,0l0,0
	c-0.925-0.926-0.925-2.427,0-3.353l15.259-15.26C16.88-0.232,18.38-0.231,19.306,0.694L19.306,0.694z"/>
<path fill="#FFFFFF" d="M0.694,0.694c0.926-0.925,2.426-0.926,3.353,0l15.259,15.26c0.925,0.926,0.925,2.427,0,3.352l0,0
	c-0.926,0.926-2.427,0.926-3.353,0L0.694,4.047C-0.231,3.12-0.23,1.62,0.694,0.694L0.694,0.694z"/>
</svg>
