<?xml version="1.0" encoding="utf-8"?>
<!-- Generator: Adobe Illustrator 16.0.0, SVG Export Plug-In . SVG Version: 6.00 Build 0)  -->
<!DOCTYPE svg PUBLIC "-//W3C//DTD SVG 1.1//EN" "http://www.w3.org/Graphics/SVG/1.1/DTD/svg11.dtd">
<svg version="1.1" id="Capa_1" xmlns="http://www.w3.org/2000/svg" xmlns:xlink="http://www.w3.org/1999/xlink" x="0px" y="0px"
	 width="20px" height="20px" viewBox="0 0 20 20" enable-background="new 0 0 20 20" xml:space="preserve">
<path fill="#FFFFFF" d="M20,2.37c0,1.309-1.061,2.37-2.37,2.37H2.37C1.061,4.74,0,3.679,0,2.37l0,0C0,1.061,1.061,0,2.37,0h15.26
	C18.939,0,20,1.061,20,2.37L20,2.37z"/>
<path fill="#FFFFFF" d="M20,10c0,1.309-1.061,2.37-2.37,2.37H2.37C1.061,12.37,0,11.309,0,10l0,0c0-1.309,1.061-2.37,2.37-2.37
	h15.26C18.939,7.63,20,8.691,20,10L20,10z"/>
<path fill="#FFFFFF" d="M20,17.631C20,18.939,18.939,20,17.63,20H2.37C1.061,20,0,18.939,0,17.631l0,0c0-1.309,1.061-2.37,2.37-2.37
	h15.26C18.939,15.261,20,16.322,20,17.631L20,17.631z"/>
</svg>
