<?xml version="1.0" encoding="utf-8"?>
<!-- Generator: Adobe Illustrator 16.0.0, SVG Export Plug-In . SVG Version: 6.00 Build 0)  -->
<!DOCTYPE svg PUBLIC "-//W3C//DTD SVG 1.1//EN" "http://www.w3.org/Graphics/SVG/1.1/DTD/svg11.dtd">
<svg version="1.1" id="Capa_1" xmlns="http://www.w3.org/2000/svg" xmlns:xlink="http://www.w3.org/1999/xlink" x="0px" y="0px"
	 width="850.379px" height="152.899px" viewBox="0 0 850.379 152.899" enable-background="new 0 0 850.379 152.899"
	 xml:space="preserve">
<g>
	<path fill-rule="evenodd" clip-rule="evenodd" fill="#FFFFFF" d="M-0.007,63.333c6.726-1.45,13.227-2.297,19.742-3.005
		c11.298-1.227,22.638-1.794,33.999-1.554c21.068,0.447,41.774,3.195,61.765,10.202c1.019,0.357,1.925,0.393,2.994,0.057
		c16.492-5.18,33.375-8.408,50.57-10.091c7.167-0.702,14.347-1.092,21.563-1.335c-3.76-1.116-7.621-1.744-11.487-2.311
		c-10.711-1.571-21.481-2.07-32.298-1.699c-10.684,0.367-21.219,1.811-31.612,4.294c-0.915,0.219-1.707,0.242-2.61-0.075
		c-9.92-3.481-20.242-5.031-30.619-6.301c-0.481-0.059-0.967-0.089-1.442-0.176c-0.187-0.034-0.351-0.186-0.756-0.414
		c17.879-7.76,36.353-12.767,55.625-16.229c-3.67-0.873-7.107-1.117-10.52-1.381c-11.625-0.9-23.229-0.967-34.724,1.434
		c-0.743,0.155-1.299,0.289-1.31-0.859c-0.062-7.019-3.684-12.472-7.952-17.585c-4.968-5.95-11.033-10.663-17.342-15.084
		c-0.504-0.354-1.007-0.709-1.642-1.155c2.948,0,5.729-0.168,8.483,0.028c14.542,1.037,28.829,3.473,42.659,8.212
		c14.311,4.903,27.446,11.798,38.065,22.854c0.766,0.797,1.545,0.984,2.584,0.875c8.346-0.879,16.72-1.061,25.095-0.698
		c36.156,1.566,69.954,10.919,100.59,30.634c2.193,1.411,2.212,1.426,0.442,3.335c-12.533,13.518-27.982,22.162-45.564,27.232
		c-0.456,0.131-0.925,0.313-1.476,0.029c0.235-0.422,0.464-0.84,0.698-1.254c2.456-4.352,1.661-7.981-2.517-10.752
		c-4.965-3.293-10.556-5.125-16.275-6.56c-14.021-3.518-28.197-3.758-42.46-1.86c-1.643,0.219-3.283,0.454-4.961,1.045
		c2.964,0.401,5.935,0.761,8.891,1.212c9.998,1.526,19.895,3.463,29.259,7.474c2.68,1.148,5.223,2.542,7.522,4.354
		c1.427,1.125,2.651,2.428,3.569,4.008c2.375,4.088,1.542,7.473-2.51,9.889c-3.59,2.142-7.637,2.734-11.681,3.356
		c-17.977,2.766-35.903,5.786-53.184,11.705c-2.218,0.76-4.352,1.77-6.518,2.68c-0.233,0.099-0.419,0.308-1,0.75
		c3.721,0.386,7.049,0.729,10.377,1.077c5.229,0.547,10.454,1.124,15.648,1.966c1.109,0.18,1.504,0.548,1.465,1.689
		c-0.346,10.003-1.831,19.818-4.698,29.552c-1.167-0.735-1.715-1.883-2.482-2.813c-12.363-14.968-27.034-27.357-42.988-38.274
		c-31.079-21.267-65.31-35.37-101.715-44.464C11.631,65.943,5.962,64.717-0.007,63.333z M233.351,52.833
		c-7.702-5.194-28.577-10.301-33.376-9.37c4.015,2.987,7.943,5.909,11.869,8.833c0.455,0.339,0.935,0.545,1.524,0.544
		C219.862,52.829,226.356,52.833,233.351,52.833z"/>
	<path fill-rule="evenodd" clip-rule="evenodd" fill="#FFFFFF" d="M596.284,65.119c0-13.362-0.005-26.725,0.012-40.087
		c0.001-0.85-0.474-1.942,1.244-1.929c12.875,0.097,25.754-0.033,38.625,0.214c8.132,0.157,14.07,5.904,14.663,14.041
		c0.592,8.131,0.987,16.316-0.354,24.412c-0.91,5.491-4.261,9.178-9.592,10.897c-1.253,0.403-1.354,0.84-0.929,2.033
		c3.604,10.108,7.081,20.261,10.709,30.36c0.649,1.808,0.328,2.185-1.518,2.099c-2.971-0.139-5.957-0.129-8.928,0.002
		c-1.438,0.063-2.022-0.407-2.468-1.758c-3.294-9.998-6.706-19.956-9.998-29.953c-0.44-1.337-0.981-1.835-2.437-1.805
		c-4.913,0.103-9.832,0.115-14.745-0.002c-1.677-0.041-2.195,0.32-2.178,2.105c0.1,9.761,0.001,19.524,0.091,29.285
		c0.016,1.77-0.516,2.215-2.202,2.127c-2.693-0.143-5.405-0.151-8.097,0.004c-1.615,0.092-1.94-0.438-1.934-1.958
		C596.308,91.844,596.284,78.481,596.284,65.119z M608.439,48.282c0,4.5-0.003,8.999,0.004,13.499c0,0.717-0.25,1.513,1.029,1.504
		c8.099-0.059,16.198,0.011,24.296-0.11c2.889-0.043,4.808-1.917,5.059-4.786c0.549-6.279,0.447-12.586,0.104-18.865
		c-0.238-4.35-2.188-5.929-6.569-5.958c-7.476-0.049-14.952,0.029-22.428-0.052c-1.418-0.016-1.53,0.54-1.516,1.686
		C608.471,39.559,608.439,43.921,608.439,48.282z"/>
	<path fill-rule="evenodd" clip-rule="evenodd" fill="#FFFFFF" d="M405.628,81.441c0,3.526-0.01,6.637,0.003,9.748
		c0.017,3.916,2.063,6.044,6.004,6.071c6.997,0.05,13.994,0.055,20.989-0.002c3.991-0.032,5.906-2.045,5.934-6.078
		c0.029-4.156,0.029-8.313,0-12.469c-0.023-3.361-1.066-4.773-4.314-5.642c-9.382-2.509-18.772-4.982-28.168-7.436
		c-7.748-2.023-11.617-6.934-11.549-14.994c0.042-4.979-0.38-9.973,0.262-14.938c0.942-7.284,5.924-12.235,13.315-12.79
		c9.323-0.699,18.679-0.71,28.003-0.007c7.961,0.601,13.411,6.606,13.566,14.591c0.058,2.978-0.035,5.958,0.041,8.935
		c0.028,1.093-0.293,1.407-1.382,1.38c-2.977-0.073-5.958-0.079-8.935,0.002c-1.172,0.032-1.546-0.295-1.504-1.486
		c0.089-2.491,0.078-4.988,0.015-7.48c-0.094-3.773-1.979-5.91-5.688-5.985c-6.716-0.136-13.44-0.153-20.156,0.003
		c-3.83,0.089-5.623,2.201-5.631,5.972c-0.008,3.533-0.008,7.066,0,10.599c0.008,3.677,0.939,4.889,4.541,5.832
		c9.061,2.375,18.126,4.731,27.19,7.097c1.804,0.471,3.567,1.052,5.225,1.925c4.717,2.484,7.101,6.398,7.126,11.721
		c0.026,5.403,0.031,10.807,0,16.21c-0.049,8.402-5.403,14.371-13.782,14.962c-9.74,0.687-19.512,0.706-29.25-0.001
		c-8.572-0.623-13.937-6.936-13.64-15.467c0.026-0.753,0.201-1.276,0.825-1.754C398.225,87.233,401.751,84.463,405.628,81.441z"/>
	<path fill-rule="evenodd" clip-rule="evenodd" fill="#FFFFFF" d="M805.489,81.473c0,3.436-0.019,6.396,0.005,9.355
		c0.034,4.436,2.037,6.428,6.516,6.442c6.717,0.021,13.435,0.022,20.151-0.001c4.357-0.015,6.26-1.97,6.264-6.354
		c0.004-4.155,0.017-8.31-0.004-12.465c-0.015-3.106-1.053-4.53-4.109-5.352c-9.31-2.502-18.631-4.964-27.956-7.405
		c-7.865-2.058-11.436-5.97-11.903-14.062c-0.294-5.094-0.403-10.242,0.159-15.345c0.852-7.743,5.926-12.827,13.623-13.387
		c9.254-0.673,18.532-0.684,27.784,0.003c8.034,0.597,13.496,6.723,13.528,14.802c0.012,2.908-0.047,5.817,0.027,8.724
		c0.027,1.09-0.29,1.407-1.381,1.381c-2.976-0.073-5.956-0.078-8.932,0.001c-1.162,0.031-1.553-0.281-1.509-1.48
		c0.09-2.489,0.044-4.985,0.022-7.478c-0.031-3.774-1.836-5.897-5.631-5.985c-6.713-0.157-13.435-0.152-20.148-0.006
		c-3.868,0.084-5.687,2.233-5.702,6.138c-0.013,3.462-0.017,6.925,0.001,10.387c0.019,3.649,1.025,4.938,4.549,5.865
		c9.522,2.502,19.063,4.936,28.562,7.522c5.386,1.466,9.435,4.483,10.752,10.3c0.28,1.241,0.212,2.478,0.216,3.718
		c0.017,5.193,0.021,10.387,0.004,15.58c-0.024,8.089-5.2,14.125-13.266,14.766c-10.074,0.799-20.198,0.792-30.273,0.001
		c-8.1-0.636-13.506-7.33-13.136-15.559c0.031-0.695,0.25-1.134,0.795-1.553C798.047,87.295,801.572,84.528,805.489,81.473z"/>
	<path fill-rule="evenodd" clip-rule="evenodd" fill="#FFFFFF" d="M693.962,58.773c0-11.287,0.029-22.574-0.035-33.861
		c-0.009-1.467,0.373-1.879,1.829-1.815c2.765,0.121,5.544,0.144,8.306-0.005c1.692-0.091,2.021,0.503,2.017,2.082
		c-0.052,20.774-0.035,41.548-0.032,62.322c0,1.176-0.02,2.355,0.051,3.528c0.214,3.59,2.184,5.724,5.746,5.779
		c7.131,0.11,14.266,0.118,21.396-0.009c3.711-0.065,5.766-2.508,5.768-6.417c0.009-21.674,0.028-43.348-0.041-65.022
		c-0.006-1.802,0.38-2.383,2.238-2.269c2.828,0.175,5.678,0.106,8.514,0.018c1.22-0.038,1.473,0.391,1.471,1.529
		c-0.03,21.743-0.006,43.487-0.034,65.23c-0.007,5.43-1.246,10.411-5.717,14.059c-3.272,2.67-7.174,3.518-11.221,3.581
		c-7.754,0.12-15.512,0.094-23.267,0.021c-10.673-0.101-16.941-6.458-16.979-17.174C693.934,79.825,693.962,69.299,693.962,58.773z"
		/>
	<path fill-rule="evenodd" clip-rule="evenodd" fill="#FFFFFF" d="M550.692,58.389c0,10.807,0.048,21.614-0.021,32.421
		c-0.033,5.262-1.587,9.964-5.931,13.332c-3.256,2.524-7.114,3.325-11.107,3.371c-7.688,0.087-15.379,0.071-23.068,0.014
		c-10.541-0.079-17.032-6.341-17.094-16.919c-0.129-21.959-0.028-43.921-0.069-65.881c-0.002-1.296,0.36-1.66,1.628-1.621
		c2.837,0.087,5.687,0.144,8.518-0.016c1.707-0.096,2.002,0.51,1.998,2.07c-0.05,20.921-0.033,41.843-0.033,62.764
		c0,0.416-0.003,0.832,0.001,1.247c0.06,5.78,1.979,7.685,7.768,7.689c6.096,0.005,12.192,0.019,18.288-0.004
		c4.923-0.019,7.063-2.186,7.064-7.096c0.002-21.544,0.02-43.089-0.038-64.634c-0.004-1.617,0.385-2.115,2.023-2.031
		c2.763,0.142,5.544,0.127,8.309,0.004c1.478-0.066,1.805,0.412,1.798,1.832C550.666,36.082,550.692,47.235,550.692,58.389z"/>
	<path fill-rule="evenodd" clip-rule="evenodd" fill="#FFFFFF" d="M338.577,65.042c0-13.218,0.05-26.436-0.054-39.652
		c-0.016-1.987,0.605-2.39,2.405-2.296c2.761,0.144,5.536,0.085,8.302,0.015c1.136-0.029,1.593,0.251,1.53,1.48
		c-0.103,2.001-0.028,4.012-0.028,6.019c0,24.774-0.026,49.548,0.051,74.322c0.006,1.914-0.541,2.331-2.313,2.231
		c-2.69-0.15-5.399-0.125-8.093-0.005c-1.469,0.065-1.839-0.396-1.833-1.839C338.599,91.892,338.577,78.467,338.577,65.042z"/>
</g>
</svg>
